<?xml version="1.0" standalone="no"?>
<!DOCTYPE svg PUBLIC "-//W3C//DTD SVG 20010904//EN"
 "http://www.w3.org/TR/2001/REC-SVG-20010904/DTD/svg10.dtd">
<svg version="1.0" xmlns="http://www.w3.org/2000/svg"
 width="220.000000pt" height="220.000000pt" viewBox="0 0 220.000000 220.000000"
 preserveAspectRatio="xMidYMid meet">
<metadata>
Created by potrace 1.14, written by Peter Selinger 2001-2017
</metadata>
<g transform="translate(0.000000,220.000000) scale(0.100000,-0.100000)"
fill="#000000" stroke="none">
<path d="M1136 2005 c-26 -27 -29 -56 -9 -84 40 -53 113 -31 113 34 0 55 -66
87 -104 50z"/>
<path d="M759 1893 c-42 -48 -116 -205 -129 -274 -16 -82 -5 -123 43 -164 47
-41 86 -50 174 -42 66 7 128 -9 165 -41 9 -8 62 -33 116 -56 90 -37 105 -47
156 -105 31 -35 53 -68 49 -72 -4 -4 -48 -24 -96 -44 -48 -21 -92 -46 -97 -56
-6 -10 -10 -54 -10 -99 l0 -82 -25 6 c-21 5 -101 41 -350 156 -33 15 -129 62
-213 104 -85 42 -156 76 -159 76 -3 0 -3 -6 0 -14 3 -8 -4 -22 -15 -33 -20
-17 -20 -25 -15 -197 5 -148 9 -182 23 -197 10 -11 21 -19 27 -19 6 0 7 75 2
205 -4 113 -3 205 1 205 5 0 33 -14 63 -30 30 -17 64 -30 77 -30 13 0 26 -5
29 -10 12 -20 265 -140 294 -140 18 0 42 -11 61 -27 18 -16 69 -46 114 -68
l81 -40 3 -297 2 -297 48 20 c26 11 92 42 147 70 55 27 106 49 113 49 17 0
189 87 194 98 1 5 33 25 70 46 36 20 70 42 76 49 19 24 24 78 31 332 5 183 11
266 20 280 10 15 11 46 4 127 l-8 108 -70 -45 c-38 -24 -71 -42 -73 -41 -1 2
5 20 14 41 9 22 22 69 30 107 20 94 6 126 -68 162 -108 53 -233 55 -362 5 -66
-25 -74 -24 -98 6 -25 33 -69 55 -107 55 -26 0 -32 7 -60 65 -40 86 -75 131
-126 160 -63 37 -105 33 -146 -12z m94 -24 c42 -23 45 -38 14 -70 -13 -13 -42
-50 -65 -81 -48 -66 -61 -76 -73 -57 -25 40 46 219 87 219 9 0 25 -5 37 -11z
m261 -215 c25 -10 19 -40 -11 -60 -16 -9 -40 -30 -55 -46 -32 -35 -48 -36 -48
-3 0 34 24 80 52 99 24 17 38 19 62 10z m368 -51 c27 -24 22 -49 -15 -72 -18
-11 -52 -41 -75 -66 -48 -52 -72 -52 -72 1 0 40 30 104 62 134 26 24 75 26
100 3z"/>
<path d="M700 750 c-13 -28 -22 -52 -19 -54 13 -12 92 -47 96 -42 6 6 -36 134
-46 141 -4 2 -18 -18 -31 -45z"/>
</g>
</svg>
